# xmcd
#
# Track frame offsets:
# 150
# 19788
# 39621
# 57926
# 72981
# 94299
# 111832
# 129420
# 149091
# 168386
# 184270
#
# Disc length: 2702 seconds
#
#
# Revision: 0
# Processed by: cddbd v1.5.2PL0 Copyright (c) Steve Scherf et al.
# Submitted via: FreeRIP 2.945 
#
DISCID=a30a8c0b
DTITLE=Wynonna - A Classic Christmas
DYEAR=2006
DGENRE=Country
TTITLE0=The Christmas Song
TTITLE1=Winter Wonderland
TTITLE2=I'll Be Home For Christmas
TTITLE3=Santa Claus Is Coming To Town
TTITLE4=Have Yourself A Merry Little Christmas
TTITLE5=White Christmas
TTITLE6=Ave Maria
TTITLE7=Emmanuel
TTITLE8=O Holy Night
TTITLE9=Silent Night
TTITLE10=It's The Messiah
EXTD=Original Release Date: October 10, 2006
EXTT0=
EXTT1=
EXTT2=
EXTT3=
EXTT4=
EXTT5=
EXTT6=
EXTT7=
EXTT8=
EXTT9=
EXTT10=
PLAYORDER=
